HIERARCHY
ROOT Hips
{
	OFFSET 0.00000 0.00000 0.00000
	CHANNELS 6 Xposition Yposition Zposition Zrotation Yrotation Xrotation 
	JOINT LHipJoint
	{
		OFFSET 0 0 0
		CHANNELS 3 Zrotation Yrotation Xrotation
		JOINT LeftUpLeg
		{
			OFFSET 1.48831 -1.59570 0.95625
			CHANNELS 3 Zrotation Yrotation Xrotation
			JOINT LeftLeg
			{
				OFFSET 2.20856 -6.06797 0.00000
				CHANNELS 3 Zrotation Yrotation Xrotation
				JOINT LeftFoot
				{
					OFFSET 2.62924 -7.22379 0.00000
					CHANNELS 3 Zrotation Yrotation Xrotation
					JOINT LeftToeBase
					{
						OFFSET 0.16802 -0.46163 2.41673
						CHANNELS 3 Zrotation Yrotation Xrotation
						End Site
						{
							OFFSET 0.00000 -0.00000 1.23760
						}
					}
				}
			}
		}
	}
	JOINT RHipJoint
	{
		OFFSET 0 0 0
		CHANNELS 3 Zrotation Yrotation Xrotation
		JOINT RightUpLeg
		{
			OFFSET -1.56796 -1.59570 0.95625
			CHANNELS 3 Zrotation Yrotation Xrotation
			JOINT RightLeg
			{
				OFFSET -2.29239 -6.29829 0.00000
				CHANNELS 3 Zrotation Yrotation Xrotation
				JOINT RightFoot
				{
					OFFSET -2.66963 -7.33475 0.00000
					CHANNELS 3 Zrotation Yrotation Xrotation
					JOINT RightToeBase
					{
						OFFSET -0.18185 -0.49964 2.34359
						CHANNELS 3 Zrotation Yrotation Xrotation
						End Site
						{
							OFFSET -0.00000 -0.00000 1.20477
						}
					}
				}
			}
		}
	}
	JOINT LowerBack
	{
		OFFSET 0 0 0
		CHANNELS 3 Zrotation Yrotation Xrotation
		JOINT Spine
		{
			OFFSET 0.03505 2.15832 -0.34324
			CHANNELS 3 Zrotation Yrotation Xrotation
			JOINT Spine1
			{
				OFFSET -0.01089 2.17963 0.04689
				CHANNELS 3 Zrotation Yrotation Xrotation
				JOINT Neck
				{
					OFFSET 0 0 0
					CHANNELS 3 Zrotation Yrotation Xrotation
					JOINT Neck1
					{
						OFFSET 0.04686 1.69404 0.22159
						CHANNELS 3 Zrotation Yrotation Xrotation
						JOINT Head
						{
							OFFSET 0.00265 1.69305 -0.01513
							CHANNELS 3 Zrotation Yrotation Xrotation
							End Site
							{
								OFFSET -0.00415 1.80215 -0.03034
							}
						}
					}
				}
				JOINT LeftShoulder
				{
					OFFSET 0 0 0
					CHANNELS 3 Zrotation Yrotation Xrotation
					JOINT LeftArm
					{
						OFFSET 3.67184 1.11724 -0.19002
						CHANNELS 3 Zrotation Yrotation Xrotation
						JOINT LeftForeArm
						{
							OFFSET 5.17714 -0.00000 -0.00000
							CHANNELS 3 Zrotation Yrotation Xrotation
							JOINT LeftHand
							{
								OFFSET 3.43679 -0.00000 -0.00000
								CHANNELS 3 Zrotation Yrotation Xrotation
								JOINT LeftFingerBase
								{
									OFFSET 0 0 0
									CHANNELS 3 Zrotation Yrotation Xrotation
									JOINT LeftHandIndex1
									{
										OFFSET 0.57312 -0.00000 -0.00000
										CHANNELS 3 Zrotation Yrotation Xrotation
										End Site
										{
											OFFSET 0.46206 -0.00000 -0.00000
										}
									}
								}
								JOINT LThumb
								{
									OFFSET 0 0 0
									CHANNELS 3 Zrotation Yrotation Xrotation
									End Site
									{
										OFFSET 0.46912 -0.00000 0.46912
									}
								}
							}
						}
					}
				}
				JOINT RightShoulder
				{
					OFFSET 0 0 0
					CHANNELS 3 Zrotation Yrotation Xrotation
					JOINT RightArm
					{
						OFFSET -3.59596 0.95831 -0.26050
						CHANNELS 3 Zrotation Yrotation Xrotation
						JOINT RightForeArm
						{
							OFFSET -5.23908 -0.00000 -0.00000
							CHANNELS 3 Zrotation Yrotation Xrotation
							JOINT RightHand
							{
								OFFSET -3.46485 -0.00000 -0.00000
								CHANNELS 3 Zrotation Yrotation Xrotation
								JOINT RightFingerBase
								{
									OFFSET 0 0 0
									CHANNELS 3 Zrotation Yrotation Xrotation
									JOINT RightHandIndex1
									{
										OFFSET -0.60875 -0.00000 -0.00000
										CHANNELS 3 Zrotation Yrotation Xrotation
										End Site
										{
											OFFSET -0.49079 -0.00000 -0.00000
										}
									}
								}
								JOINT RThumb
								{
									OFFSET 0 0 0
									CHANNELS 3 Zrotation Yrotation Xrotation
									End Site
									{
										OFFSET -0.49829 -0.00000 0.49829
									}
								}
							}
						}
					}
				}
			}
		}
	}
}
MOTION
Frames: 14
Frame Time: .0083333
50.5992 15.5985 -27.3694 0 0 0 0 0 0 -21 0 0 0 0 0 0 0 0 0 0 0 0 0 0 21 0 0 0 0 0 0 0 0 0 0 0 0 0 0 0 0 0 0 0 0 0 0 -16 0 0 21 0 0 11 0 0 0 -8 0 0 0 0 0 0 0 0 0 0 0 0 0 0 0 0 0 0 0 0 8 0 0 0 0 0 0 0 0 0 0 0 0 0 0 0 0 0
50.5992 15.5985 -27.3694 -5.6583 -59.5317 3.4038 0.0000 0.0000 0.0000 -19.5806 12.5327 -12.8142 2.4389 9.7260 28.0938 1.0581 -7.3399 -18.3752 0.0005 0.1391 0.3823 0.0000 0.0000 0.0000 21.5979 2.7628 -18.7957 -7.1024 -15.4175 49.2604 -1.9562 -7.7310 -30.1284 -0.3144 3.6043 -9.9661 1.3144 0.3883 2.7267 -0.7686 0.5161 2.9600 -1.5318 0.2785 1.5260 1.9980 -0.9401 -1.4179 0.5749 -1.3366 -12.4118 -0.1148 -0.8459 -3.7852 0.0000 0.0000 0.0000 -86.2350 -5.5340 21.6975 12.4424 -20.4648 -2.2546 -0.0000 0.0000 -17.5734 16.8349 5.6684 1.7119 -7.1250 0.0000 -0.0000 -8.2524 35.7976 1.8824 0.0000 0.0000 0.0000 88.7150 -0.0410 23.5835 -18.0533 28.2254 -4.5744 0.0000 0.0000 0.6003 -20.1122 -7.1334 2.6037 7.1250 -0.0000 -0.0000 5.6926 -37.5166 1.0526
50.6039 15.5984 -27.3607 -5.5922 -59.5345 3.2652 0.0000 0.0000 0.0000 -19.6455 12.5747 -12.6814 2.4241 9.6986 28.0062 1.0538 -7.2581 -18.3354 0.0000 0.0232 0.0638 0.0000 0.0000 0.0000 21.5086 2.9613 -18.7038 -7.0998 -15.4154 49.2509 -1.9725 -7.1658 -29.8939 -0.3509 3.8060 -10.5315 1.2404 0.3351 2.7765 -0.7959 0.4440 3.0031 -1.5176 0.2413 1.5394 1.8408 -0.9370 -1.3447 0.7011 -1.3224 -12.5189 -0.0454 -0.8386 -3.8345 -0.0000 0.0000 0.0000 -85.9207 -5.0678 23.5167 13.1842 -21.5565 -2.5206 -0.0000 0.0000 -19.1777 17.1419 6.4416 1.9819 -7.1250 0.0000 -0.0000 -8.1020 36.6132 1.6848 -0.0000 0.0000 0.0000 88.7499 -0.1466 23.4078 -18.0105 28.1706 -4.5542 0.0000 0.0000 0.5590 -20.0620 -7.1765 2.6122 7.1250 -0.0000 -0.0000 5.7402 -37.5589 1.0555
50.6089 15.5978 -27.3518 -5.6009 -59.5994 3.2426 0.0000 0.0000 0.0000 -19.6866 12.5499 -12.6241 2.4237 9.6979 28.0038 1.0592 -7.2088 -18.3803 0.0002 0.0921 0.2531 0.0000 0.0000 0.0000 21.4668 3.1886 -18.6331 -7.0738 -15.3938 49.1530 -1.9631 -6.7588 -29.5967 -0.4166 4.1430 -11.4793 1.1540 0.3046 2.7452 -0.7823 0.4012 3.0315 -1.4544 0.2185 1.5837 1.6988 -0.9312 -1.2024 0.7648 -1.3085 -12.6512 0.0016 -0.8298 -3.9070 0.0000 -0.0000 0.0000 -86.2028 -5.9673 22.2476 12.5783 -20.6662 -2.3023 -0.0000 0.0000 -18.0708 17.4294 5.9488 1.8636 -7.1250 0.0000 -0.0000 -7.7958 36.1191 1.7150 0.0000 -0.0000 0.0000 88.7711 -0.3005 23.1516 -17.9659 28.1134 -4.5331 0.0000 0.0000 0.8197 -21.5674 -6.2438 2.4616 7.1250 -0.0000 -0.0000 4.3674 -36.6593 0.8981
50.6094 15.5959 -27.3444 -5.6811 -59.5646 3.2447 0.0000 0.0000 0.0000 -19.6500 12.5375 -12.5208 2.4229 9.6964 27.9992 1.0629 -7.1689 -18.4114 0.0000 0.0363 0.0997 0.0000 0.0000 0.0000 21.5071 3.2759 -18.5029 -7.0400 -15.3655 49.0255 -1.9220 -6.6832 -29.2882 -0.4066 4.0938 -11.3406 1.1054 0.2609 2.6624 -0.7581 0.3404 3.1086 -1.4010 0.1878 1.7068 1.6077 -0.9573 -1.2123 0.8400 -1.3383 -12.6099 0.0428 -0.8429 -3.8889 0.0000 -0.0000 0.0000 -86.1176 -5.9748 22.9747 12.8782 -21.1085 -2.4092 -0.0000 0.0000 -18.7158 17.6195 6.1594 1.9517 -7.1250 0.0000 -0.0000 -7.6651 36.3479 1.6426 0.0000 -0.0000 0.0000 88.7945 -0.2768 22.9492 -17.7689 27.8602 -4.4407 0.0000 0.0000 0.8840 -21.2688 -6.4762 2.5139 7.1250 -0.0000 -0.0000 4.6422 -36.8901 0.9286
50.6114 15.5944 -27.3363 -5.7341 -59.5667 3.2386 0.0000 0.0000 0.0000 -19.6426 12.5137 -12.4493 2.4270 9.7040 28.0235 1.0686 -7.1229 -18.4598 0.0000 0.0155 0.0425 0.0000 0.0000 0.0000 21.5191 3.4115 -18.3787 -6.9998 -15.3317 48.8737 -1.8940 -6.4577 -28.9766 -0.4208 4.1636 -11.5375 1.0665 0.2272 2.6192 -0.7551 0.2941 3.1500 -1.3754 0.1643 1.7718 1.5158 -0.9769 -1.1555 0.9154 -1.3577 -12.6236 0.0848 -0.8515 -3.9033 0.0000 0.0000 0.0000 -86.0980 -6.1993 23.1830 12.9269 -21.1800 -2.4268 -0.0000 0.0000 -18.8720 17.8213 6.2015 1.9889 -7.1250 0.0000 -0.0000 -7.5023 36.4028 1.5971 0.0000 0.0000 0.0000 88.8435 -0.3597 22.7170 -17.6345 27.6866 -4.3781 0.0000 0.0000 1.0282 -21.5430 -6.3251 2.4904 7.1250 -0.0000 -0.0000 4.3959 -36.7448 0.8947
50.6127 15.5927 -27.3284 -5.8091 -59.5666 3.2581 0.0000 0.0000 0.0000 -19.6220 12.4802 -12.3878 2.4336 9.7162 28.0626 1.0758 -7.0797 -18.5204 0.0000 0.0010 0.0028 0.0000 0.0000 0.0000 21.5523 3.5304 -18.2405 -6.9487 -15.2885 48.6799 -1.8577 -6.2915 -28.6425 -0.4252 4.1851 -11.5981 1.0492 0.1987 2.5687 -0.7557 0.2552 3.1812 -1.3657 0.1449 1.8309 1.4445 -1.0032 -1.1001 0.9838 -1.3860 -12.6105 0.1209 -0.8646 -3.9082 0.0000 -0.0000 0.0000 -86.0817 -6.4514 23.2963 12.9280 -21.1816 -2.4272 -0.0000 0.0000 -18.9201 17.9746 6.1893 2.0033 -7.1250 0.0000 -0.0000 -7.3727 36.3987 1.5699 0.0000 -0.0000 0.0000 88.9092 -0.4617 22.4723 -17.4863 27.4943 -4.3094 0.0000 0.0000 1.1995 -21.7627 -6.2065 2.4714 7.1250 -0.0000 -0.0000 4.1996 -36.6305 0.8663
50.6132 15.5908 -27.3206 -5.8972 -59.5631 3.2949 0.0000 0.0000 0.0000 -19.5929 12.4421 -12.3313 2.4408 9.7295 28.1052 1.0833 -7.0379 -18.5842 0.0000 -0.0139 -0.0382 0.0000 0.0000 0.0000 21.6008 3.6357 -18.0951 -6.8919 -15.2402 48.4645 -1.8170 -6.1653 -28.2996 -0.4184 4.1517 -11.5040 1.0515 0.1731 2.5147 -0.7612 0.2206 3.2021 -1.3721 0.1281 1.8815 1.3875 -1.0335 -1.0476 1.0482 -1.4195 -12.5741 0.1533 -0.8805 -3.9042 -0.0000 0.0000 0.0000 -86.0446 -6.6674 23.4446 12.9432 -21.2039 -2.4327 -0.0000 0.0000 -18.9778 18.0733 6.1830 2.0130 -7.1250 0.0000 -0.0000 -7.2895 36.3976 1.5521 -0.0000 0.0000 0.0000 88.9891 -0.5853 22.2208 -17.3308 27.2918 -4.2379 0.0000 0.0000 1.3776 -21.8716 -6.1516 2.4631 7.1250 -0.0000 -0.0000 4.1028 -36.5779 0.8516
50.6129 15.5889 -27.3127 -5.9922 -59.5617 3.3470 0.0000 0.0000 0.0000 -19.5602 12.4011 -12.2865 2.4492 9.7449 28.1546 1.0913 -7.0016 -18.6524 0.0000 -0.0212 -0.0583 0.0000 0.0000 0.0000 21.6606 3.7315 -17.9420 -6.8271 -15.1846 48.2174 -1.7733 -6.0743 -27.9532 -0.4029 4.0752 -11.2883 1.0674 0.1502 2.4555 -0.7697 0.1899 3.2109 -1.3894 0.1136 1.9229 1.3370 -1.0644 -0.9911 1.1076 -1.4541 -12.5238 0.1827 -0.8967 -3.8962 0.0000 -0.0000 0.0000 -86.0132 -6.8952 23.5116 12.9246 -21.1767 -2.4260 -0.0000 0.0000 -18.9517 18.1208 6.1430 2.0057 -7.1250 0.0000 -0.0000 -7.2447 36.3586 1.5494 0.0000 -0.0000 0.0000 89.0792 -0.7385 21.9591 -17.1782 27.0921 -4.1682 0.0000 0.0000 1.5675 -21.9633 -6.0957 2.4521 7.1250 -0.0000 -0.0000 4.0204 -36.5231 0.8398
50.6119 15.5872 -27.3051 -6.0891 -59.5594 3.4096 0.0000 0.0000 0.0000 -19.5249 12.3608 -12.2509 2.4578 9.7608 28.2055 1.0992 -6.9751 -18.7199 0.0000 -0.0230 -0.0631 0.0000 0.0000 0.0000 21.7309 3.8138 -17.7815 -6.7555 -15.1225 47.9436 -1.7287 -6.0305 -27.6237 -0.3770 3.9436 -10.9181 1.0875 0.1275 2.3847 -0.7764 0.1595 3.2135 -1.4072 0.0993 1.9645 1.2847 -1.0937 -0.9376 1.1630 -1.4868 -12.4607 0.2110 -0.9115 -3.8830 0.0000 -0.0000 0.0000 -85.9880 -7.1127 23.5423 12.9023 -21.1439 -2.4179 -0.0000 0.0000 -18.8979 18.1239 6.0912 1.9892 -7.1250 0.0000 -0.0000 -7.2356 36.3049 1.5570 0.0000 -0.0000 0.0000 89.1701 -0.9053 21.6894 -17.0264 26.8926 -4.0993 0.0000 0.0000 1.7495 -21.9971 -6.0620 2.4428 7.1250 -0.0000 -0.0000 3.9890 -36.4888 0.8365
50.6100 15.5856 -27.2978 -6.1808 -59.5561 3.4761 0.0000 0.0000 0.0000 -19.4902 12.3240 -12.2232 2.4660 9.7759 28.2540 1.1066 -6.9588 -18.7833 0.0000 -0.0210 -0.0576 0.0000 0.0000 0.0000 21.8081 3.8820 -17.6155 -6.6792 -15.0557 47.6503 -1.6878 -6.0299 -27.3403 -0.3424 3.7601 -10.4027 1.1051 0.1051 2.3026 -0.7808 0.1295 3.2112 -1.4212 0.0852 2.0072 1.2269 -1.1205 -0.8871 1.2166 -1.5165 -12.3878 0.2394 -0.9244 -3.8657 -0.0000 0.0000 0.0000 -85.9693 -7.3106 23.5535 12.8875 -21.1222 -2.4126 -0.0000 0.0000 -18.8414 18.0975 6.0392 1.9692 -7.1250 0.0000 -0.0000 -7.2510 36.2492 1.5703 -0.0000 0.0000 0.0000 89.2596 -1.0806 21.4073 -16.8761 26.6941 -4.0315 0.0000 0.0000 1.9167 -21.9836 -6.0397 2.4322 7.1250 -0.0000 -0.0000 3.9982 -36.4641 0.8409
50.6075 15.5842 -27.2910 -6.2623 -59.5521 3.5413 0.0000 0.0000 0.0000 -19.4587 12.2899 -12.2017 2.4735 9.7895 28.2976 1.1133 -6.9518 -18.8405 0.0000 -0.0139 -0.0382 0.0000 0.0000 0.0000 21.8899 3.9360 -17.4449 -6.6002 -14.9858 47.3455 -1.6549 -6.0655 -27.1315 -0.3025 3.5361 -9.7750 1.1161 0.0841 2.2125 -0.7836 0.1014 3.2037 -1.4301 0.0718 2.0491 1.1638 -1.1456 -0.8381 1.2703 -1.5441 -12.3067 0.2686 -0.9359 -3.8451 -0.0000 0.0000 0.0000 -85.9562 -7.4830 23.5587 12.8861 -21.1201 -2.4121 -0.0000 0.0000 -18.8007 18.0602 5.9959 1.9508 -7.1250 0.0000 -0.0000 -7.2767 36.2020 1.5843 -0.0000 0.0000 0.0000 89.3485 -1.2609 21.1070 -16.7260 26.4952 -3.9643 0.0000 0.0000 2.0658 -21.9363 -6.0190 2.4182 7.1250 -0.0000 -0.0000 4.0361 -36.4392 0.8514
50.6044 15.5831 -27.2849 -6.3313 -59.5485 3.6014 0.0000 0.0000 0.0000 -19.4314 12.2569 -12.1835 2.4798 9.8011 28.3351 1.1193 -6.9480 -18.8916 0.0000 -0.0048 -0.0132 0.0000 0.0000 0.0000 21.9749 3.9763 -17.2699 -6.5208 -14.9147 47.0377 -1.6341 -6.1246 -27.0199 -0.2614 3.2896 -9.0860 1.1189 0.0660 2.1197 -0.7863 0.0770 3.1905 -1.4343 0.0601 2.0867 1.0979 -1.1702 -0.7902 1.3251 -1.5710 -12.2176 0.2985 -0.9468 -3.8215 0.0000 -0.0000 0.0000 -85.9466 -7.6269 23.5668 12.9003 -21.1410 -2.4172 -0.0000 0.0000 -18.7860 18.0248 5.9646 1.9366 -7.1250 0.0000 -0.0000 -7.3022 36.1675 1.5962 0.0000 -0.0000 0.0000 89.4387 -1.4428 20.7854 -16.5743 26.2932 -3.8969 0.0000 0.0000 2.1965 -21.8625 -5.9983 2.4010 7.1250 -0.0000 -0.0000 4.0962 -36.4129 0.8667
50.6009 15.5823 -27.2795 -6.3882 -59.5471 3.6546 0.0000 0.0000 0.0000 -19.4087 12.2205 -12.1649 2.4851 9.8108 28.3661 1.1248 -6.9410 -18.9386 0.0000 0.0065 0.0178 0.0000 0.0000 0.0000 22.0625 4.0046 -17.0896 -6.4426 -14.8439 46.7332 -1.6275 -6.1931 -27.0132 -0.2237 3.0448 -8.4034 1.1150 0.0513 2.0308 -0.7902 0.0573 3.1708 -1.4360 0.0506 2.1157 1.0326 -1.1952 -0.7435 1.3811 -1.5983 -12.1201 0.3286 -0.9579 -3.7946 0.0000 0.0000 0.0000 -85.9387 -7.7413 23.5813 12.9290 -21.1832 -2.4276 -0.0000 0.0000 -18.7994 18.0014 5.9478 1.9285 -7.1250 0.0000 -0.0000 -7.3197 36.1488 1.6034 0.0000 0.0000 0.0000 89.5322 -1.6249 20.4439 -16.4186 26.0849 -3.8282 0.0000 0.0000 2.3127 -21.7717 -5.9773 2.3816 7.1250 -0.0000 -0.0000 4.1705 -36.3855 0.8853
